<svg width="1280" height="900" viewBox="0 0 1280 900" fill="none" xmlns="http://www.w3.org/2000/svg">
  <rect width="1280" height="900" rx="24" fill="#1A1D26"/>
  <rect x="24" y="24" width="1232" height="852" rx="20" fill="#232733" stroke="#3A4153" stroke-width="2"/>
  <text x="52" y="66" fill="#F4F7FB" font-family="Segoe UI, Arial, sans-serif" font-size="30" font-weight="600">Properties for "VibeTube"</text>
  <rect x="40" y="92" width="1200" height="520" rx="14" fill="#141721"/>
  <rect x="300" y="142" width="640" height="410" rx="8" fill="#0F121B" stroke="#2D3444" stroke-width="2"/>
  <ellipse cx="620" cy="264" rx="88" ry="80" fill="#FFD79B"/>
  <rect x="548" y="344" width="144" height="136" rx="12" fill="#0F1117"/>
  <rect x="582" y="368" width="76" height="26" rx="8" fill="#E9EDF3"/>
  <rect x="567" y="209" width="36" height="24" rx="8" fill="#0F1117"/>
  <rect x="638" y="209" width="36" height="24" rx="8" fill="#0F1117"/>
  <path d="M564 181C584 160 607 152 620 152C633 152 656 160 676 181" stroke="#0F1117" stroke-width="18" stroke-linecap="round"/>
  <rect x="523" y="249" width="62" height="46" rx="10" stroke="#E4A34A" stroke-width="8"/>
  <rect x="655" y="249" width="62" height="46" rx="10" stroke="#E4A34A" stroke-width="8"/>
  <rect x="585" y="265" width="70" height="12" rx="6" fill="#E4A34A"/>
  <rect x="587" y="309" width="66" height="12" rx="6" fill="#F29B5D"/>
  <text x="578" y="386" fill="#F4F7FB" font-family="Consolas, monospace" font-size="24" font-weight="700">&lt;AI&gt;</text>
  <text x="104" y="672" fill="#F4F7FB" font-family="Segoe UI, Arial, sans-serif" font-size="28">Window</text>
  <rect x="270" y="636" width="930" height="56" rx="10" fill="#43495B"/>
  <text x="292" y="672" fill="#F4F7FB" font-family="Segoe UI, Arial, sans-serif" font-size="27">[vibetube.exe]: Broadcast Output</text>
  <rect x="1166" y="654" width="18" height="10" rx="3" fill="#D2D7E2"/>
  <text x="40" y="752" fill="#F4F7FB" font-family="Segoe UI, Arial, sans-serif" font-size="28">Capture Method</text>
  <rect x="270" y="716" width="930" height="56" rx="10" fill="#43495B" stroke="#7CE4B8" stroke-width="4"/>
  <text x="292" y="752" fill="#F4F7FB" font-family="Segoe UI, Arial, sans-serif" font-size="27">Windows 10 (1903 and up)</text>
  <rect x="1166" y="734" width="18" height="10" rx="3" fill="#D2D7E2"/>
  <text x="40" y="832" fill="#F4F7FB" font-family="Segoe UI, Arial, sans-serif" font-size="28">Window Match Priority</text>
  <rect x="270" y="796" width="930" height="56" rx="10" fill="#43495B" stroke="#7CE4B8" stroke-width="4"/>
  <text x="292" y="832" fill="#F4F7FB" font-family="Segoe UI, Arial, sans-serif" font-size="27">Window title must match</text>
  <rect x="1166" y="814" width="18" height="10" rx="3" fill="#D2D7E2"/>
  <rect x="916" y="58" width="280" height="38" rx="19" fill="#102B22" stroke="#7CE4B8" stroke-width="2"/>
  <text x="948" y="83" fill="#7CE4B8" font-family="Segoe UI, Arial, sans-serif" font-size="22" font-weight="600">Use these values in OBS</text>
</svg>
